# xmcd
#
# Track frame offsets:
#	150
#	17780
#	28956
#	42259
#	55854
#	67980
#	83932
#	95860
#	106630
#	113401
#	124697
#	142652
#	155520
#	165703
#	181352
#	194063
#	205742
#	218371
#
# Disc length: 3096 seconds
#
# Revision: 1
# Processed by: cddbd v1.5.1PL2 Copyright (c) Steve Scherf et al.
# Submitted via: EasyCDDAExtractor 7.0.6.1
#
DISCID=f00c1612
DTITLE=Don Williams - The Best Of
DYEAR=1997
DGENRE=Country
TTITLE0=I Believe In You
TTITLE1=Spend Some Time With Me
TTITLE2=Where Do I Go From Here
TTITLE3=Ruby Tuesday
TTITLE4=On Her Way To Being A Woman
TTITLE5=I've Been Loved By The Best
TTITLE6=Tulsa Time
TTITLE7=(There's) Always Something There To Remind Me
TTITLE8=Lord I Hope This Day Is Good
TTITLE9=Storybook Children
TTITLE10=Good Ole Boys Like Me
TTITLE11=Amanda
TTITLE12=Take My Hand For A While
TTITLE13=Tears
TTITLE14=There's Never Been A Time
TTITLE15=Follow Me Back To Louisville
TTITLE16=Coming Apart
TTITLE17=You're My Best Friend
EXTD=
EXTT0=
EXTT1=
EXTT2=
EXTT3=
EXTT4=
EXTT5=
EXTT6=
EXTT7=
EXTT8=
EXTT9=
EXTT10=
EXTT11=
EXTT12=
EXTT13=
EXTT14=
EXTT15=
EXTT16=
EXTT17=
PLAYORDER=
